<?xml version="1.0" encoding="UTF-8" standalone="no"?>
<svg
   width="16"
   height="17"
   viewBox="0 0 16 17"
   fill="none"
   version="1.1"
   id="svg1"
   sodipodi:docname="empty_star.svg"
   inkscape:version="1.3.2 (091e20e, 2023-11-25, custom)"
   xmlns:inkscape="http://www.inkscape.org/namespaces/inkscape"
   xmlns:sodipodi="http://sodipodi.sourceforge.net/DTD/sodipodi-0.dtd"
   xmlns="http://www.w3.org/2000/svg"
   xmlns:svg="http://www.w3.org/2000/svg">
  <defs
     id="defs1" />
  <sodipodi:namedview
     id="namedview1"
     pagecolor="#ffffff"
     bordercolor="#000000"
     borderopacity="0.25"
     inkscape:showpageshadow="2"
     inkscape:pageopacity="0.0"
     inkscape:pagecheckerboard="0"
     inkscape:deskcolor="#d1d1d1"
     showguides="false"
     inkscape:zoom="45.254834"
     inkscape:cx="7.2036503"
     inkscape:cy="7.8113202"
     inkscape:window-width="1920"
     inkscape:window-height="991"
     inkscape:window-x="-9"
     inkscape:window-y="-9"
     inkscape:window-maximized="1"
     inkscape:current-layer="svg1" />
  <path
     fill-rule="evenodd"
     clip-rule="evenodd"
     d="M 8.00001,13.257 V 1.74829 c -0.09982,0 -0.19735,0.02988 -0.28005,0.08579 C 7.63727,1.88999 7.5732,1.96937 7.53601,2.062 l -1.686,4.202 -4.374,0.397 C 1.37969,6.66996 1.28804,6.70668 1.21216,6.76669 1.13629,6.8267 1.07946,6.90743 1.04855,6.9991 1.01764,7.09076 1.01399,7.18943 1.03803,7.28313 1.06207,7.37683 1.11278,7.46154 1.18401,7.527 l 3.338,3.058 -0.992,4.509 c -0.02139,0.0967 -0.01361,0.1975 0.02236,0.2897 0.03596,0.0922 0.0985,0.1717 0.17968,0.2284 0.08118,0.0566 0.17735,0.0879 0.27632,0.0899 0.09897,0.0019 0.1963,-0.0256 0.27964,-0.079 z"
     fill="#ffcd4b"
     id="path1"
     sodipodi:nodetypes="ccccccccscccccccc"
     style="fill:#a5a5a5;fill-opacity:1"
     inkscape:label="path1" />
  <path
     fill-rule="evenodd"
     clip-rule="evenodd"
     d="m 8.00001,13.257 3.71099,2.366 c 0.0834,0.0532 0.1807,0.0805 0.2797,0.0784 0.0989,-0.0022 0.1949,-0.0336 0.276,-0.0903 0.081,-0.0568 0.1434,-0.1363 0.1793,-0.2285 0.0358,-0.0922 0.0435,-0.193 0.022,-0.2896 L 11.477,10.585 14.815,7.527 C 14.8862,7.46154 14.9369,7.37683 14.961,7.28313 14.985,7.18943 14.9814,7.09076 14.9505,6.9991 14.9196,6.90743 14.8627,6.8267 14.7869,6.76669 14.711,6.70668 14.6193,6.66996 14.523,6.661 L 10.148,6.264 8.46401,2.062 C 8.42682,1.96937 8.36275,1.88999 8.28006,1.83408 8.19737,1.77817 8.09983,1.74829 8.00001,1.74829 Z"
     fill="#ffcd4b"
     id="path3"
     sodipodi:nodetypes="cccccccccsccccscc"
     style="fill:#a5a5a5;fill-opacity:1"
     inkscape:label="path3" />
</svg>
