<?xml version="1.0" encoding="UTF-8" standalone="no"?>
<svg
   width="16"
   height="16"
   viewBox="0 0 16 16"
   fill="none"
   version="1.1"
   id="svg1"
   sodipodi:docname="empty_heart.svg"
   inkscape:version="1.3.2 (091e20e, 2023-11-25, custom)"
   xmlns:inkscape="http://www.inkscape.org/namespaces/inkscape"
   xmlns:sodipodi="http://sodipodi.sourceforge.net/DTD/sodipodi-0.dtd"
   xmlns="http://www.w3.org/2000/svg"
   xmlns:svg="http://www.w3.org/2000/svg">
  <defs
     id="defs1" />
  <sodipodi:namedview
     id="namedview1"
     pagecolor="#ffffff"
     bordercolor="#000000"
     borderopacity="0.25"
     inkscape:showpageshadow="2"
     inkscape:pageopacity="0.0"
     inkscape:pagecheckerboard="0"
     inkscape:deskcolor="#d1d1d1"
     inkscape:zoom="48.5625"
     inkscape:cx="8.6280566"
     inkscape:cy="7.6705277"
     inkscape:window-width="1920"
     inkscape:window-height="991"
     inkscape:window-x="-9"
     inkscape:window-y="-9"
     inkscape:window-maximized="1"
     inkscape:current-layer="svg1"
     showguides="false" />
  <ellipse
     style="fill:#ffffff;stroke-width:7.58119;paint-order:stroke fill markers"
     id="path2"
     cx="7.9691119"
     cy="7.814672"
     rx="8.0514803"
     ry="7.9176321" />
  <path
     d="M8.33299 3.90601L7.99999 4.20401L7.66699 3.90601C6.90899 3.22701 6.10499 2.83301 5.33299 2.83301C3.39999 2.83301 2.16699 4.06701 2.16699 6.00001C2.16699 8.59701 4.29399 10.988 7.98299 13.175C7.97599 13.171 8.02599 13.171 8.02599 13.171C11.716 10.961 13.833 8.58801 13.833 6.00001C13.833 4.06701 12.6 2.83301 10.667 2.83301C9.89499 2.83301 9.09099 3.22701 8.33299 3.90601ZM7.99999 2.88001C8.83399 2.22101 9.73599 1.83301 10.667 1.83301C13.152 1.83301 14.833 3.51501 14.833 6.00001C14.833 9.04401 12.505 11.655 8.54699 14.024C8.38298 14.1203 8.19647 14.1715 8.0063 14.1726C7.81613 14.1736 7.62906 14.1244 7.46399 14.03C3.50799 11.685 1.16699 9.05301 1.16699 6.00001C1.16699 3.51501 2.84799 1.83301 5.33299 1.83301C6.26399 1.83301 7.16599 2.22101 7.99999 2.88001Z"
     fill="#333333"
     id="path1"
     style="fill:#fb4747;fill-opacity:1" />
</svg>
