<svg width="20" height="22" viewBox="0 0 20 22" fill="none" xmlns="http://www.w3.org/2000/svg">
<path d="M13.057 3.48195C15.849 4.50295 16.966 6.85995 16.841 10.0779C16.801 11.0999 16.676 11.9439 16.396 13.4189C16.321 13.8119 16.302 13.9159 16.273 14.0779C16.005 15.5999 16.321 17.1149 17.248 18.6619C17.3464 18.8264 17.3954 19.0157 17.3892 19.2073C17.3831 19.3989 17.322 19.5846 17.2132 19.7425C17.1045 19.9003 16.9527 20.0236 16.7759 20.0976C16.5991 20.1716 16.4048 20.1932 16.216 20.1599L11.257 19.2859C10.9946 20.0863 10.4524 20.7651 9.72989 21.198C9.00737 21.6308 8.153 21.7886 7.32354 21.6424C6.49409 21.4962 5.74517 21.0557 5.21423 20.4019C4.68328 19.7481 4.4059 18.9248 4.433 18.0829L1.444 17.5559C1.25519 17.5227 1.07992 17.4358 0.939076 17.3058C0.798231 17.1757 0.697744 17.0079 0.649586 16.8223C0.601428 16.6367 0.607629 16.4412 0.667451 16.2591C0.727273 16.0769 0.838193 15.9158 0.987 15.7949C2.387 14.6579 3.202 13.3419 3.471 11.8199C3.499 11.6589 3.516 11.5539 3.581 11.1599C3.821 9.67695 3.993 8.84095 4.305 7.86695C5.288 4.80095 7.145 2.96795 10.117 2.96395C10.1241 2.82224 10.1612 2.68366 10.2259 2.5574C10.2906 2.43115 10.3815 2.32011 10.4925 2.23168C10.6034 2.14324 10.7319 2.07943 10.8694 2.04447C11.0069 2.00952 11.1503 2.00423 11.29 2.02895L12.275 2.20295C12.4147 2.22755 12.5476 2.28161 12.6648 2.36152C12.7821 2.44144 12.8809 2.54538 12.9549 2.66645C13.0289 2.78751 13.0762 2.92293 13.0938 3.06371C13.1114 3.20448 13.0989 3.3464 13.057 3.48195ZM6.452 18.4399C6.50309 18.746 6.64782 19.0287 6.86627 19.249C7.08471 19.4694 7.36611 19.6166 7.6717 19.6703C7.97728 19.724 8.29202 19.6817 8.57254 19.5491C8.85306 19.4165 9.08556 19.2002 9.238 18.9299L6.452 18.4399ZM14.304 13.7309C14.334 13.5569 14.354 13.4499 14.431 13.0469C14.694 11.6649 14.808 10.8939 14.843 10.0009C14.953 7.17695 13.992 5.55295 11.261 5.07095C8.531 4.59095 7.072 5.78795 6.21 8.47895C5.937 9.32995 5.78 10.0929 5.555 11.4809C5.489 11.8869 5.471 11.9949 5.44 12.1689C5.19593 13.551 4.59393 14.845 3.694 15.9219L14.661 17.8559C14.1835 16.5358 14.0604 15.1135 14.304 13.7309ZM15.08 3.67595C14.9817 3.61639 14.8961 3.53806 14.8281 3.44542C14.7601 3.35279 14.711 3.24766 14.6836 3.13604C14.6562 3.02443 14.651 2.90851 14.6684 2.79491C14.6858 2.6813 14.7254 2.57224 14.785 2.47395C14.8446 2.37565 14.9229 2.29005 15.0155 2.22203C15.1082 2.15401 15.2133 2.1049 15.3249 2.0775C15.4365 2.05011 15.5524 2.04497 15.666 2.06238C15.7796 2.07978 15.8887 2.11939 15.987 2.17895C19.103 4.06595 19.971 7.25595 19.469 11.5789C19.4581 11.695 19.4242 11.8076 19.3692 11.9103C19.3142 12.0131 19.2393 12.1038 19.1488 12.1771C19.0583 12.2505 18.954 12.305 18.8421 12.3376C18.7303 12.3701 18.613 12.38 18.4973 12.3666C18.3815 12.3532 18.2696 12.3168 18.1681 12.2596C18.0666 12.2024 17.9776 12.1255 17.9062 12.0334C17.8348 11.9413 17.7826 11.8359 17.7525 11.7234C17.7224 11.6108 17.7151 11.4934 17.731 11.3779C18.163 7.65995 17.471 5.12395 15.08 3.67595ZM3.034 8.74395C3.01005 8.85854 2.96334 8.96715 2.89665 9.06337C2.82996 9.15958 2.74464 9.24144 2.64575 9.30408C2.54685 9.36673 2.43639 9.40889 2.32091 9.42807C2.20542 9.44726 2.08726 9.44308 1.97343 9.41577C1.85959 9.38847 1.75239 9.3386 1.65817 9.26911C1.56395 9.19963 1.48464 9.11195 1.42492 9.01126C1.3652 8.91057 1.3263 8.79892 1.31051 8.68292C1.29472 8.56692 1.30237 8.44894 1.333 8.33595C2.347 4.10595 4.271 1.41195 7.863 0.725947C7.97594 0.70441 8.09201 0.705329 8.20459 0.72865C8.31717 0.751972 8.42406 0.79724 8.51915 0.861869C8.61423 0.926499 8.69566 1.00922 8.75878 1.10532C8.82189 1.20142 8.86546 1.30901 8.887 1.42195C8.90854 1.53488 8.90762 1.65096 8.8843 1.76354C8.86097 1.87612 8.81571 1.98301 8.75108 2.07809C8.68645 2.17318 8.60372 2.25461 8.50762 2.31772C8.41152 2.38084 8.30394 2.42441 8.191 2.44595C5.433 2.97195 3.906 5.10995 3.034 8.74395Z" fill="#3D3F56"/>
</svg>