<svg width="21" height="18" viewBox="0 0 21 18" fill="none" xmlns="http://www.w3.org/2000/svg">
<path d="M19.63 6.732V15C19.63 15.7956 19.3139 16.5587 18.7513 17.1213C18.1887 17.6839 17.4257 18 16.63 18H4.63C3.83436 18 3.07129 17.6839 2.50868 17.1213C1.94608 16.5587 1.63 15.7956 1.63 15V6.732C1.32597 6.55647 1.0735 6.304 0.897967 5.99997C0.722431 5.69594 0.630014 5.35106 0.630005 5V2C0.630005 1.46957 0.840719 0.960859 1.21579 0.585786C1.59086 0.210714 2.09957 0 2.63 0L18.63 0C19.1604 0 19.6691 0.210714 20.0442 0.585786C20.4193 0.960859 20.63 1.46957 20.63 2V5C20.63 5.35106 20.5376 5.69594 20.362 5.99997C20.1865 6.304 19.934 6.55647 19.63 6.732ZM17.63 7H3.63V15C3.63 15.2652 3.73536 15.5196 3.9229 15.7071C4.11043 15.8946 4.36479 16 4.63 16H16.63C16.8952 16 17.1496 15.8946 17.3371 15.7071C17.5246 15.5196 17.63 15.2652 17.63 15V7ZM8.63 9H12.63C12.8952 9 13.1496 9.10536 13.3371 9.29289C13.5246 9.48043 13.63 9.73478 13.63 10C13.63 10.2652 13.5246 10.5196 13.3371 10.7071C13.1496 10.8946 12.8952 11 12.63 11H8.63C8.36479 11 8.11043 10.8946 7.9229 10.7071C7.73536 10.5196 7.63 10.2652 7.63 10C7.63 9.73478 7.73536 9.48043 7.9229 9.29289C8.11043 9.10536 8.36479 9 8.63 9ZM2.63 2V5H18.63V2H2.63Z" fill="#3D3F56"/>
</svg>