<svg width="16" height="17" viewBox="0 0 16 17" fill="none" xmlns="http://www.w3.org/2000/svg">
<path fill-rule="evenodd" clip-rule="evenodd" d="M8.00001 13.257L11.711 15.623C11.7944 15.6762 11.8917 15.7035 11.9907 15.7014C12.0896 15.6992 12.1856 15.6678 12.2667 15.6111C12.3477 15.5543 12.4101 15.4748 12.446 15.3826C12.4818 15.2904 12.4895 15.1896 12.468 15.093L11.477 10.585L14.815 7.527C14.8862 7.46154 14.9369 7.37683 14.961 7.28313C14.985 7.18943 14.9814 7.09076 14.9505 6.9991C14.9196 6.90743 14.8627 6.8267 14.7869 6.76669C14.711 6.70668 14.6193 6.66996 14.523 6.661L10.148 6.264L8.46401 2.062C8.42682 1.96937 8.36275 1.88999 8.28006 1.83408C8.19737 1.77817 8.09983 1.74829 8.00001 1.74829C7.90019 1.74829 7.80266 1.77817 7.71996 1.83408C7.63727 1.88999 7.5732 1.96937 7.53601 2.062L5.85001 6.264L1.47601 6.661C1.37969 6.66996 1.28804 6.70668 1.21216 6.76669C1.13629 6.8267 1.07946 6.90743 1.04855 6.9991C1.01764 7.09076 1.01399 7.18943 1.03803 7.28313C1.06207 7.37683 1.11278 7.46154 1.18401 7.527L4.52201 10.585L3.53001 15.094C3.50862 15.1907 3.5164 15.2915 3.55237 15.3837C3.58833 15.4759 3.65087 15.5554 3.73205 15.6121C3.81323 15.6687 3.9094 15.7 4.00837 15.702C4.10734 15.7039 4.20467 15.6764 4.28801 15.623L8.00001 13.257Z" fill="#FFCD4B"/>
</svg>
