<svg width="20" height="20" viewBox="0 0 20 20" fill="none" xmlns="http://www.w3.org/2000/svg">
<path d="M13.082 12.5H5.08898C4.69042 12.5027 4.29965 12.3896 3.96414 12.1744C3.62863 11.9593 3.36282 11.6513 3.19898 11.288L0.996982 6.288C0.548982 5.273 1.03298 4.097 2.07698 3.662C2.33198 3.555 2.60698 3.5 2.88698 3.5H15.217L15.561 2.05C15.776 1.143 16.607 0.5 17.564 0.5H18.802C19.37 0.5 19.83 0.948 19.83 1.5C19.83 2.052 19.37 2.5 18.802 2.5H17.564L14.895 13.75C15.985 14.212 16.746 15.27 16.746 16.5C16.746 18.157 15.366 19.5 13.662 19.5C11.959 19.5 10.579 18.157 10.579 16.5C10.579 16.15 10.641 15.813 10.754 15.5H8.34698C8.46098 15.813 8.52298 16.15 8.52298 16.5C8.52298 18.157 7.14298 19.5 5.43898 19.5C3.73598 19.5 2.35498 18.157 2.35498 16.5C2.35498 14.843 3.73598 13.5 5.43898 13.5H12.845L13.082 12.5ZM2.88598 5.5L5.08898 10.5H13.556L14.742 5.5H2.88598ZM5.43898 17.5C6.00698 17.5 6.46698 17.052 6.46698 16.5C6.46698 15.948 6.00698 15.5 5.43898 15.5C4.87098 15.5 4.41098 15.948 4.41098 16.5C4.41098 17.052 4.87098 17.5 5.43898 17.5ZM13.662 17.5C14.23 17.5 14.69 17.052 14.69 16.5C14.69 15.948 14.23 15.5 13.662 15.5C13.095 15.5 12.635 15.948 12.635 16.5C12.635 17.052 13.095 17.5 13.662 17.5Z" fill="#3D3F56"/>
</svg>